<svg width="38" height="38" viewBox="0 0 38 38" fill="none" xmlns="http://www.w3.org/2000/svg">
<path d="M29.429 36.744H8.57097C7.17845 36.7421 5.84351 36.1881 4.85894 35.2033C3.87437 34.2186 3.32056 32.8835 3.31897 31.491V6.50899C3.32056 5.11647 3.87437 3.78142 4.85894 2.79667C5.84351 1.81191 7.17845 1.25784 8.57097 1.25599H21.891C22.5829 1.25468 23.2682 1.39044 23.9074 1.65545C24.5466 1.92046 25.127 2.30946 25.615 2.79999L33.136 10.314C34.1219 11.305 34.6771 12.645 34.681 14.043V31.491C34.6794 32.8835 34.1256 34.2186 33.141 35.2033C32.1564 36.1881 30.8215 36.7421 29.429 36.744ZM8.57097 3.75599C7.84133 3.75731 7.14196 4.04782 6.62612 4.56385C6.11028 5.07988 5.82003 5.77935 5.81897 6.50899V31.491C5.82003 32.2206 6.11028 32.9201 6.62612 33.4361C7.14196 33.9522 7.84133 34.2427 8.57097 34.244H29.429C30.1586 34.2427 30.858 33.9522 31.3738 33.4361C31.8897 32.9201 32.1799 32.2206 32.181 31.491V14.04C32.1791 13.3052 31.8873 12.6008 31.369 12.08L23.848 4.56699C23.5916 4.30914 23.2866 4.1047 22.9507 3.96549C22.6148 3.82628 22.2546 3.75508 21.891 3.75599H8.57097Z" fill="white"/>
<path d="M32.3201 13.72H27.6651C26.2771 13.7187 24.9463 13.1667 23.9648 12.1853C22.9833 11.2038 22.4314 9.87301 22.4301 8.48501V2.51001H24.9301V8.48501C24.9308 9.21013 25.2193 9.90533 25.732 10.4181C26.2447 10.9308 26.9399 11.2192 27.6651 11.22H32.3201V13.72Z" fill="white"/>
<path d="M15.045 19.475C15.1251 19.513 15.1946 19.5704 15.247 19.642C15.2994 19.7136 15.333 19.7971 15.345 19.885C15.3604 19.9754 15.3555 20.0682 15.3304 20.1565C15.3053 20.2447 15.2607 20.3262 15.2 20.395C15.1625 20.4511 15.1129 20.4981 15.055 20.5327C14.9971 20.5673 14.9321 20.5886 14.865 20.595C14.7219 20.6077 14.5781 20.58 14.45 20.515C14.2879 20.4412 14.1187 20.3843 13.945 20.345C13.7627 20.3048 13.5766 20.285 13.39 20.286C13.0604 20.2802 12.7327 20.3379 12.425 20.456C12.1509 20.5624 11.9034 20.7276 11.7 20.94C11.4981 21.1539 11.3431 21.4077 11.245 21.685C11.1383 21.9902 11.0858 22.3117 11.09 22.635C11.082 22.9961 11.1414 23.3556 11.265 23.695C11.3696 23.9776 11.5352 24.2336 11.75 24.445C11.9574 24.6455 12.2067 24.7975 12.48 24.89C12.773 24.9893 13.0806 25.0387 13.39 25.036C13.5712 25.0359 13.752 25.0188 13.93 24.985C14.1114 24.9515 14.2867 24.8908 14.45 24.805C14.5782 24.7406 14.7228 24.7162 14.865 24.735C15.0033 24.7565 15.1273 24.832 15.21 24.945C15.2719 25.0141 15.3171 25.0964 15.3423 25.1857C15.3674 25.2749 15.3718 25.3688 15.355 25.46C15.3398 25.5436 15.3046 25.6224 15.2523 25.6894C15.2001 25.7565 15.1324 25.8098 15.055 25.845C14.8828 25.931 14.7038 26.0029 14.52 26.06C14.3384 26.1168 14.1529 26.1602 13.965 26.19C13.7765 26.2201 13.5859 26.2352 13.395 26.235C12.9301 26.2379 12.4682 26.1601 12.03 26.005C11.6063 25.8553 11.2157 25.6247 10.88 25.326C10.5353 25.0142 10.2638 24.63 10.085 24.201C9.88296 23.7041 9.78428 23.1713 9.79497 22.635C9.78975 22.1489 9.87978 21.6665 10.06 21.215C10.23 20.7924 10.4853 20.4095 10.81 20.09C11.139 19.77 11.5281 19.5185 11.955 19.35C12.4134 19.1697 12.9024 19.0797 13.395 19.085C13.6845 19.0849 13.9731 19.1185 14.255 19.185C14.5289 19.25 14.7941 19.3473 15.045 19.475Z" fill="white"/>
<path d="M13.4 26.359C12.921 26.361 12.4452 26.2812 11.993 26.123C11.5546 25.9687 11.1501 25.731 10.802 25.423C10.4423 25.0975 10.1583 24.6971 9.97002 24.25C9.76178 23.7375 9.65972 23.1881 9.67002 22.635C9.66511 22.1328 9.75818 21.6345 9.94402 21.168C10.1204 20.7291 10.3856 20.3314 10.723 20C11.0641 19.6686 11.4671 19.4076 11.909 19.232C12.384 19.0465 12.8902 18.9541 13.4 18.96C13.6992 18.9584 13.9976 18.9919 14.289 19.06C14.5723 19.1272 14.8465 19.228 15.106 19.36C15.2048 19.4058 15.2906 19.4755 15.3558 19.5628C15.4209 19.6501 15.4632 19.7522 15.479 19.86C15.497 19.9681 15.4909 20.0789 15.461 20.1844C15.431 20.2899 15.3781 20.3874 15.306 20.47C15.2586 20.539 15.1966 20.5968 15.1243 20.6391C15.0521 20.6815 14.9714 20.7074 14.888 20.715C14.722 20.7306 14.5549 20.699 14.406 20.624C14.2524 20.5538 14.0918 20.4999 13.927 20.463C13.7541 20.4242 13.5773 20.4051 13.4 20.406C13.0866 20.4008 12.775 20.4554 12.482 20.567C12.2246 20.6674 11.992 20.8222 11.8 21.021C11.6105 21.222 11.465 21.4604 11.373 21.721C11.2714 22.0124 11.2213 22.3193 11.225 22.628C11.2175 22.9734 11.2741 23.3172 11.392 23.642C11.49 23.9078 11.6454 24.1489 11.847 24.348C12.0417 24.5355 12.2752 24.6778 12.531 24.765C12.9779 24.9122 13.455 24.9428 13.917 24.854C14.0864 24.8232 14.25 24.7666 14.402 24.686C14.5544 24.6118 14.7248 24.583 14.893 24.603C15.0629 24.6297 15.2154 24.722 15.318 24.86C15.3918 24.9431 15.4454 25.0421 15.4747 25.1492C15.504 25.2564 15.5082 25.3689 15.487 25.478C15.4676 25.5809 15.4235 25.6776 15.3585 25.7598C15.2936 25.842 15.2097 25.9073 15.114 25.95C14.9364 26.0389 14.7518 26.1132 14.562 26.172C14.3743 26.2297 14.1829 26.2745 13.989 26.306C13.7944 26.3395 13.5975 26.3572 13.4 26.359ZM13.4 19.21C12.9212 19.2045 12.4459 19.2914 12 19.466C11.5903 19.6294 11.2165 19.8717 10.9 20.179C10.5879 20.4867 10.3425 20.8553 10.179 21.262C10.0054 21.6987 9.91842 22.165 9.92302 22.635C9.91249 23.1538 10.0078 23.6692 10.203 24.15C10.3752 24.5621 10.6356 24.9314 10.966 25.232C11.2897 25.5202 11.6663 25.7427 12.075 25.887C12.5001 26.0361 12.9476 26.1112 13.398 26.109C13.5822 26.1095 13.7661 26.0951 13.948 26.066C14.1301 26.0368 14.3099 25.9946 14.486 25.94C14.6627 25.8851 14.8346 25.8159 15 25.733C15.0616 25.7069 15.1157 25.6657 15.1573 25.6133C15.1988 25.5609 15.2266 25.4989 15.238 25.433C15.2515 25.3597 15.2477 25.2843 15.2269 25.2128C15.206 25.1412 15.1687 25.0756 15.118 25.021C15.087 24.9773 15.0475 24.9402 15.0021 24.9119C14.9566 24.8836 14.9059 24.8646 14.853 24.856C14.7352 24.84 14.6154 24.8609 14.51 24.916C14.3368 25.006 14.1511 25.0697 13.959 25.105C13.4541 25.2016 12.9328 25.1672 12.445 25.005C12.1547 24.9059 11.8897 24.7441 11.669 24.531C11.4414 24.3068 11.2656 24.0354 11.154 23.736C11.0261 23.3836 10.9641 23.0108 10.971 22.636C10.9674 22.2984 11.0222 21.9628 11.133 21.644C11.2368 21.35 11.4014 21.0811 11.616 20.855C11.8318 20.6294 12.0942 20.4536 12.385 20.34C12.7088 20.216 13.0533 20.1549 13.4 20.16C13.7838 20.1586 14.1632 20.2409 14.512 20.401C14.6205 20.4559 14.7418 20.4801 14.863 20.471C14.9125 20.4656 14.9602 20.4493 15.0027 20.4234C15.0453 20.3975 15.0816 20.3625 15.109 20.321C15.1596 20.2652 15.1969 20.1988 15.2182 20.1265C15.2395 20.0543 15.2442 19.9783 15.232 19.904C15.2228 19.8351 15.1961 19.7696 15.1544 19.714C15.1128 19.6583 15.0576 19.6142 14.994 19.586C14.7519 19.4631 14.4961 19.3691 14.232 19.306C13.9594 19.2417 13.6801 19.2095 13.4 19.21Z" fill="white"/>
<path d="M19.165 26.235C18.7385 26.241 18.3136 26.182 17.905 26.06C17.5095 25.9314 17.1451 25.7219 16.8349 25.445C16.752 25.3762 16.6839 25.2911 16.635 25.195C16.5899 25.1088 16.5659 25.0132 16.565 24.916C16.5641 24.7642 16.6234 24.6182 16.7299 24.51C16.7829 24.4532 16.8472 24.4082 16.9187 24.3781C16.9902 24.3479 17.0673 24.3332 17.145 24.335C17.269 24.3341 17.3894 24.3769 17.485 24.456C17.7133 24.647 17.9675 24.8049 18.2399 24.925C18.5344 25.0399 18.849 25.0943 19.165 25.085C19.3967 25.0877 19.627 25.0488 19.8449 24.97C20.0327 24.9058 20.2036 24.8002 20.3449 24.661C20.4049 24.6032 20.4526 24.5339 20.4852 24.4573C20.5178 24.3807 20.5347 24.2983 20.535 24.215C20.5399 24.0289 20.4758 23.8476 20.3549 23.706C20.2034 23.5443 20.0146 23.422 19.805 23.35C19.5013 23.2391 19.1859 23.1636 18.8649 23.125C18.5397 23.0815 18.2207 22.9992 17.915 22.88C17.6628 22.7831 17.4306 22.6408 17.2299 22.46C17.0483 22.2937 16.9065 22.0886 16.815 21.86C16.7186 21.6132 16.6711 21.35 16.6749 21.085C16.6639 20.6886 16.7814 20.2992 17.01 19.975C17.2394 19.6629 17.551 19.4206 17.91 19.275C18.3098 19.112 18.7382 19.0307 19.17 19.036C19.578 19.0324 19.9838 19.098 20.37 19.23C20.7 19.339 21.0069 19.5086 21.2749 19.73C21.3617 19.7892 21.4332 19.8681 21.4836 19.9602C21.534 20.0523 21.5619 20.155 21.565 20.26C21.5644 20.3346 21.5491 20.4084 21.52 20.477C21.4908 20.5457 21.4483 20.6079 21.395 20.66C21.3449 20.7167 21.2833 20.762 21.2143 20.7931C21.1454 20.8241 21.0706 20.8401 20.995 20.84C20.8976 20.8407 20.8028 20.8095 20.725 20.751C20.5947 20.6427 20.45 20.5532 20.295 20.485C20.1106 20.4004 19.9201 20.3302 19.725 20.275C19.5431 20.2209 19.3547 20.1923 19.165 20.19C18.9187 20.1837 18.6733 20.2209 18.44 20.3C18.2669 20.3572 18.1129 20.461 17.995 20.6C17.8956 20.7253 17.8426 20.8811 17.8449 21.041C17.8383 21.222 17.9008 21.3986 18.02 21.535C18.1574 21.6793 18.3296 21.786 18.52 21.845C18.7782 21.9318 19.0421 22.0003 19.3099 22.05C19.6669 22.1134 20.0194 22.2003 20.3649 22.31C20.6368 22.3942 20.8922 22.5244 21.12 22.695C21.3183 22.8496 21.4733 23.0528 21.5699 23.285C21.677 23.5605 21.7279 23.8546 21.7199 24.15C21.7299 24.5533 21.603 24.948 21.36 25.27C21.1137 25.5889 20.7877 25.8372 20.415 25.99C20.0191 26.1551 19.5939 26.2385 19.165 26.235Z" fill="white"/>
<path d="M19.165 26.359C18.7251 26.3653 18.2867 26.3046 17.865 26.179C17.4531 26.0451 17.0734 25.8271 16.75 25.539C16.6547 25.4591 16.5765 25.3608 16.52 25.25C16.4665 25.1464 16.438 25.0316 16.437 24.915C16.4367 24.7314 16.5085 24.5551 16.637 24.424C16.7014 24.3545 16.7798 24.2995 16.867 24.2626C16.9543 24.2258 17.0483 24.2078 17.143 24.21C17.2952 24.209 17.4429 24.261 17.561 24.357C17.7808 24.541 18.0252 24.6934 18.287 24.81C18.5662 24.9173 18.864 24.9683 19.163 24.96C19.38 24.9623 19.5957 24.9261 19.8 24.853C19.9699 24.7938 20.1249 24.6983 20.254 24.573C20.3023 24.5267 20.3409 24.4711 20.3673 24.4096C20.3938 24.3481 20.4076 24.2819 20.408 24.215C20.413 24.0583 20.3596 23.9054 20.258 23.786C20.1194 23.6408 19.9479 23.531 19.758 23.466C19.4632 23.3593 19.1573 23.2865 18.846 23.249C18.5107 23.2024 18.1819 23.1175 17.866 22.996C17.6 22.8931 17.3551 22.7427 17.143 22.552C16.9485 22.3722 16.7962 22.1516 16.697 21.906C16.5948 21.6445 16.5442 21.3657 16.548 21.085C16.5371 20.662 16.663 20.2467 16.907 19.901C17.152 19.5702 17.4835 19.3134 17.865 19.159C18.2801 18.9898 18.7248 18.9051 19.173 18.91C19.5966 18.9061 20.0179 18.9737 20.419 19.11C20.7637 19.2232 21.0844 19.3991 21.365 19.629C21.4657 19.6997 21.5483 19.7932 21.6061 19.9017C21.664 20.0103 21.6954 20.131 21.698 20.254C21.6979 20.4357 21.626 20.61 21.498 20.739C21.4364 20.8083 21.3607 20.8637 21.2761 20.9016C21.1915 20.9396 21.0998 20.9591 21.007 20.959C20.8826 20.96 20.7613 20.9199 20.662 20.845C20.5388 20.7416 20.4014 20.6564 20.254 20.592C20.0761 20.5105 19.8918 20.4436 19.703 20.392C19.3087 20.2702 18.8857 20.2779 18.496 20.414C18.3443 20.4631 18.209 20.5531 18.105 20.674C18.023 20.777 17.9796 20.9054 17.982 21.037C17.975 21.187 18.0262 21.3339 18.125 21.447C18.2497 21.5767 18.4057 21.6722 18.578 21.724C18.8311 21.8084 19.0897 21.8752 19.352 21.924C19.7139 21.9878 20.071 22.076 20.421 22.188C20.7066 22.2766 20.9748 22.4136 21.214 22.593C21.4286 22.7613 21.5965 22.9816 21.702 23.233C21.8154 23.524 21.8698 23.8347 21.862 24.147C21.8723 24.5791 21.7363 25.0019 21.476 25.347C21.2149 25.6832 20.8701 25.9449 20.476 26.106C20.0606 26.278 19.6146 26.3641 19.165 26.359ZM17.145 24.459C17.0844 24.4569 17.024 24.468 16.9681 24.4915C16.9122 24.515 16.862 24.5503 16.821 24.595C16.7792 24.6369 16.7461 24.6866 16.7236 24.7414C16.7011 24.7961 16.6897 24.8548 16.69 24.914C16.691 24.9918 16.7105 25.0682 16.747 25.137C16.7881 25.2183 16.8456 25.2901 16.916 25.348C17.2135 25.6138 17.5628 25.8151 17.942 25.939C18.3387 26.0571 18.7511 26.1141 19.165 26.108C19.5824 26.1114 19.9962 26.0297 20.381 25.868C20.7335 25.7232 21.042 25.4888 21.276 25.188C21.5026 24.888 21.6204 24.5198 21.61 24.144C21.6173 23.8651 21.5697 23.5875 21.47 23.327C21.3811 23.1147 21.2392 22.9288 21.058 22.787C20.8416 22.6255 20.5991 22.5024 20.341 22.423C20.0013 22.3139 19.6545 22.2284 19.303 22.167C19.029 22.1151 18.7587 22.045 18.494 21.957C18.2816 21.8916 18.0898 21.7724 17.937 21.611C17.7972 21.452 17.7232 21.2456 17.73 21.034C17.728 20.8465 17.7905 20.6639 17.907 20.517C18.0386 20.3592 18.2119 20.2414 18.407 20.177C18.8463 20.0226 19.3235 20.0124 19.769 20.148C19.9704 20.2048 20.167 20.2774 20.357 20.365C20.5231 20.4377 20.6779 20.5337 20.817 20.65C20.8716 20.6896 20.9376 20.7103 21.005 20.709C21.0637 20.7089 21.1217 20.6962 21.175 20.6717C21.2283 20.6472 21.2757 20.6115 21.314 20.567C21.3565 20.5266 21.3905 20.4781 21.4138 20.4243C21.4372 20.3705 21.4495 20.3126 21.45 20.254C21.4466 20.1679 21.4229 20.0838 21.3808 20.0085C21.3388 19.9333 21.2796 19.869 21.208 19.821C20.9494 19.6112 20.6545 19.4505 20.338 19.347C19.9637 19.2192 19.5705 19.1556 19.175 19.159C18.7597 19.1539 18.3476 19.2321 17.963 19.389C17.6238 19.5257 17.329 19.7534 17.111 20.047C16.8989 20.3504 16.7899 20.7139 16.8 21.084C16.7963 21.3328 16.8407 21.5801 16.931 21.812C17.0163 22.0232 17.1474 22.2128 17.315 22.367C17.5045 22.5386 17.7238 22.6742 17.962 22.767C18.2591 22.8815 18.5685 22.9611 18.884 23.004C19.2141 23.0445 19.5385 23.1224 19.851 23.236C20.0796 23.316 20.2855 23.4501 20.451 23.627C20.5912 23.7915 20.666 24.0019 20.661 24.218C20.6606 24.3171 20.6405 24.4152 20.6019 24.5065C20.5632 24.5979 20.5069 24.6806 20.436 24.75C20.2816 24.9025 20.095 25.0187 19.89 25.09C19.658 25.1739 19.4128 25.2156 19.166 25.213C18.8333 25.2213 18.5022 25.1635 18.192 25.043C17.9089 24.9176 17.6447 24.7533 17.407 24.555C17.3339 24.4929 17.2409 24.4582 17.145 24.459Z" fill="white"/>
<path d="M25.635 26.235C25.2086 26.241 24.7837 26.182 24.375 26.06C23.9795 25.9316 23.6151 25.7221 23.305 25.445C23.2215 25.3767 23.1533 25.2915 23.105 25.195C23.06 25.1088 23.036 25.0132 23.035 24.916C23.0342 24.7642 23.0935 24.6182 23.2 24.51C23.2529 24.4531 23.3172 24.4081 23.3887 24.3779C23.4603 24.3477 23.5374 24.3331 23.615 24.335C23.7391 24.3341 23.8595 24.3769 23.955 24.456C24.1834 24.647 24.4376 24.8049 24.71 24.925C25.0045 25.0399 25.3191 25.0943 25.635 25.085C25.8668 25.0877 26.0971 25.0487 26.315 24.97C26.5027 24.9056 26.6735 24.8 26.815 24.661C26.8748 24.603 26.9223 24.5337 26.955 24.4571C26.9876 24.3806 27.0046 24.2982 27.005 24.215C27.01 24.0289 26.9459 23.8476 26.825 23.706C26.6733 23.5445 26.4845 23.4223 26.275 23.35C25.9714 23.2391 25.656 23.1636 25.335 23.125C25.0098 23.0815 24.6908 22.9992 24.385 22.88C24.1328 22.7833 23.9006 22.641 23.7 22.46C23.5184 22.2937 23.3766 22.0886 23.285 21.86C23.1883 21.6133 23.1407 21.35 23.145 21.085C23.1335 20.6885 23.2511 20.299 23.48 19.975C23.7109 19.6622 24.0242 19.4198 24.385 19.275C24.7849 19.112 25.2133 19.0307 25.645 19.036C26.0548 19.0319 26.4623 19.0975 26.85 19.23C27.1782 19.3399 27.4834 19.5094 27.75 19.73C27.8366 19.7894 27.908 19.8683 27.9584 19.9604C28.0088 20.0524 28.0367 20.1551 28.04 20.26C28.0385 20.4106 27.9774 20.5544 27.87 20.66C27.8199 20.7166 27.7583 20.7619 27.6893 20.7929C27.6204 20.8239 27.5456 20.84 27.47 20.84C27.3727 20.8407 27.2779 20.8095 27.2 20.751C27.0698 20.6427 26.9251 20.5532 26.77 20.485C26.5857 20.4004 26.3952 20.3302 26.2 20.275C26.0182 20.2209 25.8297 20.1923 25.64 20.19C25.3938 20.1837 25.1483 20.2209 24.915 20.3C24.742 20.3572 24.588 20.461 24.47 20.6C24.3707 20.7253 24.3177 20.8811 24.32 21.041C24.3133 21.222 24.3759 21.3986 24.495 21.535C24.6325 21.6793 24.8047 21.786 24.995 21.845C25.2532 21.9319 25.5172 22.0004 25.785 22.05C26.142 22.1136 26.4944 22.2004 26.84 22.31C27.1119 22.3942 27.3673 22.5244 27.595 22.695C27.7934 22.8496 27.9484 23.0528 28.045 23.285C28.152 23.5605 28.203 23.8546 28.195 24.15C28.205 24.5533 28.0781 24.948 27.835 25.27C27.5888 25.5889 27.2628 25.8372 26.89 25.99C26.4926 26.1558 26.0657 26.2392 25.635 26.235Z" fill="white"/>
<path d="M25.635 26.359C25.195 26.3652 24.7567 26.3045 24.335 26.179C23.9234 26.0448 23.5441 25.8269 23.221 25.539C23.1254 25.4593 23.0471 25.361 22.991 25.25C22.9374 25.1464 22.909 25.0316 22.908 24.915C22.9077 24.7314 22.9795 24.5551 23.108 24.424C23.1726 24.3546 23.2512 24.2997 23.3386 24.2628C23.426 24.2259 23.5201 24.2079 23.615 24.21C23.7671 24.2092 23.9148 24.2611 24.033 24.357C24.2526 24.5412 24.497 24.6936 24.759 24.81C25.0382 24.9173 25.3359 24.9683 25.635 24.96C25.8516 24.9624 26.067 24.9262 26.271 24.853C26.4413 24.7941 26.5966 24.6985 26.726 24.573C26.7743 24.5267 26.8128 24.4711 26.8393 24.4096C26.8657 24.3481 26.8796 24.2819 26.88 24.215C26.885 24.0583 26.8315 23.9054 26.73 23.786C26.5914 23.6407 26.4199 23.5309 26.23 23.466C25.9356 23.3592 25.6299 23.2864 25.319 23.249C24.9837 23.2026 24.6548 23.1177 24.339 22.996C24.073 22.8931 23.828 22.7427 23.616 22.552C23.4214 22.3722 23.2691 22.1516 23.17 21.906C23.0678 21.6445 23.0172 21.3657 23.021 21.085C23.01 20.662 23.1359 20.2467 23.38 19.901C23.6247 19.5704 23.9559 19.3137 24.337 19.159C24.7524 18.9899 25.1974 18.9052 25.646 18.91C26.0696 18.9061 26.4908 18.9737 26.892 19.11C27.2363 19.2232 27.5567 19.3991 27.837 19.629C27.9379 19.6996 28.0207 19.7929 28.0787 19.9015C28.1367 20.0101 28.1683 20.1309 28.171 20.254C28.1709 20.4357 28.099 20.61 27.971 20.739C27.9093 20.8083 27.8337 20.8637 27.7491 20.9016C27.6644 20.9396 27.5727 20.9591 27.48 20.959C27.3555 20.96 27.2343 20.9199 27.135 20.845C27.0117 20.7416 26.8743 20.6564 26.727 20.592C26.5487 20.5105 26.3641 20.4436 26.175 20.392C25.7806 20.2702 25.3576 20.2779 24.968 20.414C24.8166 20.4634 24.6818 20.5533 24.578 20.674C24.496 20.777 24.4525 20.9054 24.455 21.037C24.4479 21.187 24.4992 21.3339 24.598 21.447C24.7226 21.5767 24.8786 21.6721 25.051 21.724C25.3037 21.8083 25.562 21.8751 25.824 21.924C26.1862 21.9877 26.5437 22.0759 26.894 22.188C27.1795 22.2766 27.4477 22.4136 27.687 22.593C27.9015 22.7612 28.0695 22.9816 28.175 23.233C28.2884 23.524 28.3428 23.8347 28.335 24.147C28.3452 24.5791 28.2092 25.0019 27.949 25.347C27.689 25.6823 27.3461 25.9439 26.954 26.106C26.536 26.279 26.0872 26.3651 25.635 26.359ZM23.615 24.459C23.5543 24.4569 23.494 24.468 23.4381 24.4915C23.3821 24.5149 23.3319 24.5503 23.291 24.595C23.2491 24.6369 23.216 24.6866 23.1935 24.7414C23.1711 24.7961 23.1596 24.8548 23.16 24.914C23.161 24.9917 23.1802 25.068 23.216 25.137C23.2574 25.2183 23.3153 25.2902 23.386 25.348C23.6833 25.614 24.0327 25.8153 24.412 25.939C24.8087 26.0571 25.2211 26.1141 25.635 26.108C26.0524 26.1113 26.4661 26.0297 26.851 25.868C27.2034 25.7232 27.512 25.4888 27.746 25.188C27.9726 24.888 28.0904 24.5198 28.08 24.144C28.0874 23.865 28.0395 23.5873 27.939 23.327C27.8507 23.1146 27.7092 22.9286 27.528 22.787C27.3115 22.6255 27.069 22.5024 26.811 22.423C26.4709 22.3138 26.1238 22.2282 25.772 22.167C25.4982 22.1151 25.2283 22.045 24.964 21.957C24.7516 21.8915 24.5597 21.7724 24.407 21.611C24.2671 21.452 24.1931 21.2456 24.2 21.034C24.1976 20.8466 24.2597 20.664 24.376 20.517C24.508 20.3596 24.6811 20.2419 24.876 20.177C25.3156 20.0226 25.7931 20.0125 26.239 20.148C26.4403 20.2048 26.6369 20.2774 26.827 20.365C26.9929 20.438 27.1477 20.5339 27.287 20.65C27.3415 20.6896 27.4075 20.7103 27.475 20.709C27.5336 20.7089 27.5916 20.6962 27.645 20.6717C27.6983 20.6472 27.7457 20.6115 27.784 20.567C27.8263 20.5265 27.8601 20.4779 27.8835 20.4242C27.9068 20.3704 27.9192 20.3126 27.92 20.254C27.9163 20.1678 27.8924 20.0837 27.8502 20.0084C27.808 19.9332 27.7486 19.869 27.677 19.821C27.4188 19.611 27.1243 19.4503 26.808 19.347C26.4337 19.2192 26.0405 19.1556 25.645 19.159C25.2296 19.1538 24.8175 19.232 24.433 19.389C24.0938 19.5257 23.799 19.7534 23.581 20.047C23.3684 20.3502 23.2593 20.7138 23.27 21.084C23.2659 21.3328 23.3101 21.58 23.4 21.812C23.4856 22.0232 23.6171 22.2128 23.785 22.367C23.9745 22.5386 24.1937 22.6741 24.432 22.767C24.7287 22.8817 25.0378 22.9612 25.353 23.004C25.683 23.0444 26.0075 23.1222 26.32 23.236C26.5486 23.316 26.7545 23.4501 26.92 23.627C27.0602 23.7915 27.1349 24.0019 27.13 24.218C27.1295 24.3171 27.1094 24.4152 27.0708 24.5065C27.0322 24.5979 26.9758 24.6806 26.905 24.75C26.7503 24.9027 26.5634 25.0189 26.358 25.09C26.1263 25.174 25.8814 25.2157 25.635 25.213C25.3022 25.2214 24.9712 25.1636 24.661 25.043C24.3777 24.9174 24.1132 24.7531 23.875 24.555C23.8024 24.4934 23.7102 24.4587 23.615 24.459Z" fill="white"/>
</svg>
