<svg width="35" height="35" viewBox="0 0 35 35" fill="none" xmlns="http://www.w3.org/2000/svg">
<path d="M22.92 13.42H12.08C10.378 13.3537 8.76775 12.6309 7.58699 11.4032C6.40624 10.1755 5.7467 8.53834 5.7467 6.835C5.7467 5.13166 6.40624 3.49448 7.58699 2.26681C8.76775 1.03914 10.378 0.31634 12.08 0.25H22.92C24.6221 0.31634 26.2323 1.03914 27.4131 2.26681C28.5938 3.49448 29.2534 5.13166 29.2534 6.835C29.2534 8.53834 28.5938 10.1755 27.4131 11.4032C26.2323 12.6309 24.6221 13.3537 22.92 13.42ZM12.08 2.75C11.0316 2.80189 10.0432 3.25492 9.31953 4.01532C8.59584 4.77572 8.19222 5.78527 8.19222 6.835C8.19222 7.88473 8.59584 8.89428 9.31953 9.65468C10.0432 10.4151 11.0316 10.8681 12.08 10.92H22.92C23.9685 10.8681 24.9569 10.4151 25.6806 9.65468C26.4042 8.89428 26.8079 7.88473 26.8079 6.835C26.8079 5.78527 26.4042 4.77572 25.6806 4.01532C24.9569 3.25492 23.9685 2.80189 22.92 2.75H12.08Z" fill="white"/>
<path d="M17.42 24.08H12.08C10.3349 24.08 8.66123 23.3867 7.42724 22.1527C6.19325 20.9188 5.5 19.2451 5.5 17.5C5.5 15.7549 6.19325 14.0812 7.42724 12.8472C8.66123 11.6132 10.3349 10.92 12.08 10.92C12.4115 10.92 12.7295 11.0517 12.9639 11.2861C13.1983 11.5205 13.33 11.8385 13.33 12.17C13.33 12.5015 13.1983 12.8194 12.9639 13.0539C12.7295 13.2883 12.4115 13.42 12.08 13.42C10.9979 13.42 9.96015 13.8498 9.195 14.615C8.42986 15.3801 8 16.4179 8 17.5C8 18.5821 8.42986 19.6198 9.195 20.385C9.96015 21.1501 10.9979 21.58 12.08 21.58H16.17V12.17C16.17 11.8385 16.3017 11.5205 16.5361 11.2861C16.7705 11.0517 17.0885 10.92 17.42 10.92C17.7515 10.92 18.0695 11.0517 18.3039 11.2861C18.5383 11.5205 18.67 11.8385 18.67 12.17V22.83C18.67 23.1615 18.5383 23.4794 18.3039 23.7139C18.0695 23.9483 17.7515 24.08 17.42 24.08Z" fill="white"/>
<path d="M12.16 34.75C11.2737 34.7846 10.3895 34.6398 9.56041 34.3245C8.73135 34.0091 7.97448 33.5296 7.33517 32.9147C6.69585 32.2998 6.18725 31.5622 5.83984 30.7461C5.49243 29.9299 5.31335 29.052 5.31335 28.165C5.31335 27.278 5.49243 26.4001 5.83984 25.584C6.18725 24.7678 6.69585 24.0302 7.33517 23.4153C7.97448 22.8004 8.73135 22.3209 9.56041 22.0056C10.3895 21.6902 11.2737 21.5455 12.16 21.58C12.4915 21.58 12.8095 21.7117 13.0439 21.9461C13.2783 22.1806 13.41 22.4985 13.41 22.83C13.41 23.1615 13.2783 23.4795 13.0439 23.7139C12.8095 23.9483 12.4915 24.08 12.16 24.08C11.3507 24.078 10.5589 24.3162 9.88502 24.7644C9.2111 25.2126 8.68532 25.8507 8.37423 26.5979C8.06313 27.3451 7.98071 28.1677 8.13739 28.9618C8.29407 29.7558 8.68281 30.4855 9.25441 31.0585C9.82601 31.6315 10.5548 32.0221 11.3484 32.1807C12.1421 32.3393 12.9649 32.2589 13.7129 31.9496C14.4608 31.6404 15.1002 31.1161 15.55 30.4433C15.9999 29.7705 16.24 28.9794 16.24 28.17V22.83C16.24 22.4985 16.3717 22.1806 16.6061 21.9461C16.8406 21.7117 17.1585 21.58 17.49 21.58C17.8215 21.58 18.1395 21.7117 18.3739 21.9461C18.6083 22.1806 18.74 22.4985 18.74 22.83V28.17C18.7374 29.9143 18.0433 31.5864 16.8099 32.8199C15.5764 34.0533 13.9043 34.7474 12.16 34.75Z" fill="white"/>
<path d="M22.83 24.25C21.5108 24.25 20.2213 23.8588 19.1244 23.1259C18.0275 22.393 17.1726 21.3513 16.6678 20.1325C16.1629 18.9137 16.0308 17.5726 16.2882 16.2787C16.5456 14.9849 17.1808 13.7964 18.1136 12.8636C19.0465 11.9308 20.2349 11.2955 21.5288 11.0381C22.8226 10.7808 24.1638 10.9129 25.3825 11.4177C26.6013 11.9225 27.643 12.7774 28.3759 13.8743C29.1088 14.9712 29.5 16.2608 29.5 17.58C29.5 18.4559 29.3275 19.3232 28.9923 20.1325C28.6571 20.9417 28.1658 21.677 27.5464 22.2964C26.9271 22.9157 26.1918 23.4071 25.3825 23.7423C24.5733 24.0775 23.706 24.25 22.83 24.25ZM22.83 13.42C22.0049 13.42 21.1982 13.6648 20.5123 14.1234C19.8263 14.5821 19.2918 15.234 18.9765 15.9965C18.6612 16.7591 18.5792 17.598 18.7409 18.4072C18.9026 19.2164 19.3008 19.9594 19.885 20.5421C20.4691 21.1249 21.2131 21.5213 22.0227 21.6811C22.8322 21.8408 23.671 21.7568 24.4328 21.4397C25.1946 21.1225 25.8451 20.5865 26.3021 19.8994C26.7591 19.2124 27.002 18.4051 27 17.58C26.9974 16.4758 26.5569 15.4177 25.7751 14.6378C24.9934 13.8579 23.9343 13.42 22.83 13.42Z" fill="white"/>
<path d="M17.42 13.42C17.2558 13.4187 17.0935 13.3851 16.9424 13.321C16.7912 13.257 16.6542 13.1638 16.539 13.0468C16.4239 12.9298 16.3329 12.7913 16.2713 12.6391C16.2097 12.487 16.1787 12.3242 16.18 12.16L16.26 1.49C16.2626 1.16194 16.3941 0.848058 16.626 0.616077C16.858 0.384096 17.1719 0.252614 17.5 0.25C17.6641 0.251308 17.8264 0.284937 17.9776 0.348967C18.1287 0.412997 18.2658 0.506173 18.3809 0.623176C18.4961 0.740179 18.5871 0.878717 18.6487 1.03088C18.7103 1.18304 18.7413 1.34585 18.74 1.51L18.66 12.18C18.6548 12.5073 18.5225 12.8197 18.2911 13.0511C18.0596 13.2825 17.7472 13.4148 17.42 13.42Z" fill="white"/>
</svg>
