<svg width="57" height="57" viewBox="0 0 57 57" fill="none" xmlns="http://www.w3.org/2000/svg">
<path d="M16.356 9.79899H18.382V12.018H20.598V5.39099H18.382V7.58099H16.356V5.39099H14.141V12.018H16.356V9.79899Z" fill="white"/>
<path d="M23.51 12.018H25.725V7.58999H27.674V5.39099H21.561V7.58999H23.51V12.018Z" fill="white"/>
<path d="M30.812 8.73499L32.338 11.09H32.375L33.898 8.73499V12.018H36.105V5.39099H33.795L32.375 7.72299L30.955 5.39099H28.646V12.018H30.812V8.73499Z" fill="white"/>
<path d="M42.537 9.82899H39.422V5.39099H37.207V12.018H42.537V9.82899Z" fill="white"/>
<path d="M10.949 14.926L14.117 50.458L28.338 54.405L42.57 50.46L45.744 14.926H10.949ZM38.871 26.546H28.346H22.194L22.592 31.009H28.346H38.475L37.28 44.392L28.346 46.867L28.34 46.869L19.412 44.392L18.789 37.392H23.163L23.487 41.023L28.341 42.335L28.347 42.333L33.206 41.021L33.712 35.369H28.347H18.608L17.431 22.19H28.346H39.26L38.871 26.546Z" fill="white"/>
</svg>
