<svg width="512" height="512" viewBox="0 0 512 512" fill="none" xmlns="http://www.w3.org/2000/svg">
<path d="M259 271.3L226.2 367H226.1L200.7 440.1C202.5 440.6 204.2 441 206 441.5H206.3C222.448 445.806 239.088 447.991 255.8 448C264.135 448.062 272.461 447.46 280.7 446.2C291.725 444.818 302.603 442.442 313.2 439.1C315.8 438.3 318.4 437.4 321 436.5C318.2 430.5 312.2 417.2 311.9 416.6L259 271.3Z" fill="white"/>
<path d="M80.8 180.5C70.8 203.1 64 230.9 64 256C64 262.3 64.3 268.6 64.9 274.8C71.8 346 117.8 405.8 181 432.7C183.6 433.8 186.3 434.9 189 435.9L96 180.6C88 180.3 86.5 180.8 80.8 180.5Z" fill="white"/>
<path d="M430.2 175.4C425.898 166.138 420.847 157.242 415.1 148.8C413.5 146.4 411.7 144 410 141.6C388.332 112.517 358.907 90.1287 325.1 77C303.05 68.3749 279.577 63.9652 255.9 64C227.218 64.0006 198.902 70.4438 173.043 82.8539C147.185 95.2639 124.444 113.324 106.5 135.7C99.9997 143.758 94.1481 152.318 89 161.3C103.2 161.4 120.8 161.4 122.8 161.4C140.9 161.4 168.8 159.2 168.8 159.2C178.2 158.6 179.2 172.3 169.9 173.4C169.9 173.4 160.5 174.5 150.1 175L213 362L250.8 248.7L224 175.1C214.6 174.6 205.9 173.5 205.9 173.5C196.5 173 197.7 158.7 206.9 159.3C206.9 159.3 235.4 161.5 252.4 161.5C270.5 161.5 298.4 159.3 298.4 159.3C307.7 158.7 308.9 172.4 299.5 173.5C299.5 173.5 290.2 174.6 279.8 175.1L342.1 360.7L359.4 303.1C368.1 280.7 372.5 262.2 372.5 247.4C372.5 226.1 364.8 211.3 358.2 199.8C349.5 185.5 341.3 173.5 341.3 159.4C341.3 143.5 353.3 128.7 370.3 128.7H372.5C398.7 128 407.3 154 408.4 171.7V172.3C408.8 179.5 408.5 184.8 408.5 191.1C408.5 208.5 405.2 228.2 395.4 252.9L356.4 365.7L334.1 431.4C335.9 430.6 337.6 429.8 339.4 428.9C396.1 401.5 437.4 346.9 446.1 282.2C447.39 273.594 448.025 264.902 448 256.2C448.038 228.29 441.962 200.71 430.2 175.4Z" fill="white"/>
<path d="M256 48C303.988 48.0247 350.493 64.6372 387.635 95.0231C424.778 125.409 450.275 167.7 459.807 214.732C469.339 261.764 462.32 310.645 439.939 353.095C417.558 395.545 381.192 428.953 337 447.66C286.169 469.143 228.885 469.553 177.752 448.8C126.618 428.047 85.8225 387.831 64.34 337C42.8575 286.169 42.4475 228.885 63.2003 177.752C83.953 126.618 124.169 85.8225 175 64.34C200.625 53.497 228.175 47.9393 256 48ZM256 32C132.29 32 32 132.29 32 256C32 379.71 132.29 480 256 480C379.71 480 480 379.71 480 256C480 132.29 379.71 32 256 32Z" fill="white"/>
</svg>
